<?xml version="1.0" encoding="utf-8"?>
<!-- Generator: Adobe Illustrator 19.0.0, SVG Export Plug-In . SVG Version: 6.00 Build 0)  -->
<svg version="1.1" id="Layer_1" xmlns="http://www.w3.org/2000/svg" xmlns:xlink="http://www.w3.org/1999/xlink" x="0px" y="0px"
	 viewBox="0 0 177.2 52.3" style="enable-background:new 0 0 177.2 52.3;" xml:space="preserve">
<style type="text/css">
	.st0{fill:#06283A;}
	.st1{fill:#95AB63;}
</style>
<g id="XMLID_3_">
	<g id="XMLID_18_">
		<path id="XMLID_5_" class="st0" d="M169.7,6H57.3v3h112.4c2.5,0,4.5,2,4.5,4.5v31.3c0,2.5-2,4.5-4.5,4.5H20.8
			c-2.5,0-4.5-2-4.5-4.5V20.6h-3v24.2c0,4.1,3.4,7.5,7.5,7.5h148.8c4.1,0,7.5-3.4,7.5-7.5V13.5C177.2,9.4,173.8,6,169.7,6z"/>
	</g>
	<g id="XMLID_17_">
		<path id="XMLID_20_" class="st0" d="M57.6,39V19h6.8c4,0,5.9,2.9,5.9,6.2c0,3.4-2,6.2-5.9,6.2h-3.5V39H57.6z M67,25.2
			c0-1.9-1.1-3.3-2.9-3.3h-3.1v6.6H64C65.8,28.5,67,27.2,67,25.2z"/>
		<path id="XMLID_23_" class="st0" d="M76.5,39V19h3.3v17.1h7V39H76.5z"/>
		<path id="XMLID_25_" class="st0" d="M103.7,39l-1.1-4H96l-1.1,4h-3.6l6-20h4l6,20H103.7z M99.3,22.6l-2.6,9.6h5.3L99.3,22.6z"/>
		<path id="XMLID_28_" class="st0" d="M123.7,39l-7.5-13.5V39h-3.3V19h3.4l7.3,13.1V19h3.3v20H123.7z"/>
		<path id="XMLID_30_" class="st0" d="M137.7,39V21.9h-4.6V19h12.5v2.9H141V39H137.7z"/>
		<path id="XMLID_32_" class="st1" d="M161,39l-3.4-7.6h-2.5V39h-3.3V19h6.9c3.5,0,5.9,2.5,5.9,6.2c0,3.5-2,5.2-3.8,5.7l3.9,8.1H161
			z M161.2,25.2c0-2-1.1-3.3-2.9-3.3h-3.1v6.6h3.1C160,28.5,161.2,27.2,161.2,25.2z"/>
	</g>
	<g id="XMLID_4_">
		<g id="XMLID_6_">
			<path id="XMLID_7_" class="st0" d="M31.4,51h-2.4c0.8-5.5,3.5-10.6,7.6-14.3l1.6,1.8C34.6,41.8,32.2,46.2,31.4,51L31.4,51z
				 M33.6,13.9c1-0.9,2.4-1.5,3.9-2l0.5,6.1L32.3,23C30.5,20.1,31,16.2,33.6,13.9L33.6,13.9z M40.1,19.2c3.3-2.9,6.3-5.7,8.2-7.4
				c-0.5,3.1-1.6,7.7-3.6,10.8L38,21.1L40.1,19.2z M40.2,15.9l-0.4-4.8c2.4-0.6,4.9-0.8,6.9-1L40.2,15.9z M38,26.4
				c-1.5-0.1-3-0.6-4.1-1.6l2-1.8l7.2,1.7C41.6,25.9,39.8,26.5,38,26.4L38,26.4z M13.2,10.2l0.5-6.1c1.6,0.5,3,1.2,3.9,2
				c2.6,2.4,3.1,6.3,1.3,9.2L13.2,10.2z M15.3,15.3l2,1.8c-2.6,2.1-6.5,2.1-9.1-0.1L15.3,15.3z M4.5,2.5C6.5,2.7,9,3,11.4,3.5
				L11,8.3L4.5,2.5z M6.5,15c-2-3.1-3.1-7.8-3.6-10.8c2.3,2.1,6.3,5.7,10.3,9.2L6.5,15z M26.8,40.7c0-5.3,2-10.3,5.4-14.2
				c1.6,1.4,3.5,2.2,5.7,2.3c0.2,0,0.3,0,0.5,0c2.4,0,4.6-0.9,6.4-2.4c4.7-4.2,6-14.5,6.3-16.9l0.2-1.8c0,0-14.1-0.1-19.2,4.5
				c-1.9,1.7-3,4-3.1,6.6c-0.1,2.2,0.5,4.3,1.7,6c-1.6,1.8-3,3.8-4,6c-0.5-5.1-2.6-9.9-6.1-13.6c1.2-1.7,1.9-3.8,1.7-6
				c-0.1-2.5-1.3-4.9-3.1-6.6C14.4,0.2,1.8,0,1.3,0L0,0l0.1,1.3c0,0.5,1.1,12.7,6.3,17.4v0c1.8,1.6,4.1,2.4,6.4,2.4
				c2.2,0,4.4-0.8,6.2-2.3c3.5,3.9,5.4,9,5.4,14.2v18h2.4V40.7z"/>
		</g>
	</g>
</g>
</svg>
