<svg id="Layer_1" xmlns="http://www.w3.org/2000/svg" viewBox="0 0 438.2 109.5">
  <style>
    .st0{fill:#3E4F78;} .st1{fill:#A8AA52;}
  </style>
  <path id="XMLID_37_" class="st0" d="M52.9 31.9c5.3 5.2 7.9 12.3 7.9 21.3 0 3.8-.4 7.2-1.3 10.1-.9 2.9-2 5.4-3.3 7.5-1.3 2.1-2.9 3.8-4.5 5.2-1.7 1.4-3.3 2.5-4.9 3.3-1.8.9-3.5 1.6-5.1 2.2-1.6.5-3.1.9-4.4 1.1-1.3.2-2.4.4-3.2.4-.8 0-1.3.1-1.4.1h-3.4c-.8 0-1.6-.3-2.2-1-.6-.6-1-1.4-1-2.2 0-1 .3-1.8 1-2.5.6-.6 1.4-1 2.2-1h3.4c1.4-.1 2.6-.2 3.6-.4s2.2-.5 3.5-.9c1.3-.4 2.7-1 4.1-1.7 6.9-3.7 10.4-10.5 10.4-20.2 0-7.1-1.9-12.7-5.8-16.7-2.7-2.5-6-4.3-10.1-5.5-1.6-.4-2.9-.6-4-.6s-1.6-.1-1.7-.1H6.5v46.1h11.2c.9 0 1.7.3 2.3 1s1 1.5 1 2.5c0 .8-.3 1.6-1 2.2-.6.6-1.4 1-2.3 1H6.5v23.2c0 .8-.3 1.6-1 2.2-.6.6-1.4 1-2.3 1s-1.7-.3-2.3-1c-.6-.7-.9-1.5-.9-2.3V26.8c0-.8.3-1.6.9-2.2.6-.6 1.4-1 2.3-1h29.3c.2 0 .9.1 2.3.2s3 .4 5 .9 4.1 1.3 6.5 2.4c2.3 1.1 4.5 2.7 6.6 4.8z"/>
  <path id="XMLID_65_" class="st0" d="M52.9 31.9c5.3 5.2 7.9 12.3 7.9 21.3 0 3.8-.4 7.2-1.3 10.1-.9 2.9-2 5.4-3.3 7.5-1.3 2.1-2.9 3.8-4.5 5.2-1.7 1.4-3.3 2.5-4.9 3.3-1.8.9-3.5 1.6-5.1 2.2-1.6.5-3.1.9-4.4 1.1-1.3.2-2.4.4-3.2.4-.8 0-1.3.1-1.4.1h-3.4c-.8 0-1.6-.3-2.2-1-.6-.6-1-1.4-1-2.2 0-1 .3-1.8 1-2.5.6-.6 1.4-1 2.2-1h3.4c1.4-.1 2.6-.2 3.6-.4s2.2-.5 3.5-.9c1.3-.4 2.7-1 4.1-1.7 6.9-3.7 10.4-10.5 10.4-20.2 0-7.1-1.9-12.7-5.8-16.7-2.7-2.5-6-4.3-10.1-5.5-1.6-.4-2.9-.6-4-.6s-1.6-.1-1.7-.1H6.5v46.1h11.2c.9 0 1.7.3 2.3 1s1 1.5 1 2.5c0 .8-.3 1.6-1 2.2-.6.6-1.4 1-2.3 1H6.5v23.2c0 .8-.3 1.6-1 2.2-.6.6-1.4 1-2.3 1s-1.7-.3-2.3-1c-.6-.7-.9-1.5-.9-2.3V26.8c0-.8.3-1.6.9-2.2.6-.6 1.4-1 2.3-1h29.3c.2 0 .9.1 2.3.2s3 .4 5 .9 4.1 1.3 6.5 2.4c2.3 1.1 4.5 2.7 6.6 4.8z"/>
  <path id="XMLID_66_" class="st1" d="M6.5 76.4h11.2c.9 0 1.7.3 2.3 1s1 1.5 1 2.5c0 .8-.3 1.6-1 2.2-.6.6-1.4 1-2.3 1H6.5"/>
  <path id="XMLID_36_" class="st0" d="M74.3 99.5c-.9 0-1.7-.3-2.3-.9-.6-.6-1-1.4-1-2.3V26.9c0-.9.3-1.7 1-2.3.6-.6 1.4-1 2.3-1 .9 0 1.7.3 2.3 1 .6.6.9 1.4.9 2.3v69.3c0 .9-.3 1.7-.9 2.3-.6.7-1.4 1-2.3 1z"/>
  <path id="XMLID_35_" class="st1" d="M117.8 109.4H74.3c-.9 0-1.7-.3-2.3-1-.6-.7-1-1.5-1-2.4 0-.9.3-1.7 1-2.3.6-.6 1.4-.9 2.3-.9h43.5c.8 0 1.6.3 2.3.9.7.6 1 1.4 1 2.3 0 .9-.3 1.7-1 2.4s-1.5 1-2.3 1z"/>
  <path id="XMLID_34_" class="st0" d="M204.5 104.8c.4.8.4 1.7 0 2.5s-1 1.4-1.8 1.8c-.8.4-1.7.4-2.5.1-.8-.3-1.4-.9-1.8-1.8l-29.4-72-29.6 72c-.8 1.3-1.8 1.9-3.1 1.9-.5 0-1-.1-1.3-.2-.8-.4-1.4-1-1.8-1.8-.4-.8-.4-1.7 0-2.5L166 25.5c.5-1.3 1.5-1.9 3-1.9 1.4 0 2.4.6 3 1.9l32.5 79.3z"/>
  <path id="XMLID_33_" class="st1" d="M180.6 86.3h-23.3c-.9 0-1.7-.3-2.3-1-.6-.6-1-1.4-1-2.3 0-.9.3-1.7 1-2.3.6-.6 1.4-1 2.3-1h23.3c.9 0 1.7.3 2.3 1 .6.6 1 1.4 1 2.3 0 .9-.3 1.7-1 2.3-.6.7-1.3 1-2.3 1z"/>
  <path id="XMLID_13_" class="st0" d="M438.2 106.2c0 .9-.4 1.7-1.1 2.3-.6.6-1.4.9-2.3.9-1 0-1.8-.4-2.3-1.1L409 83h-27.6v23.2c0 .8-.3 1.6-1 2.2-.7.6-1.4 1-2.2 1-.9 0-1.7-.3-2.3-1-.6-.6-1-1.4-1-2.2V26.9c0-.9.3-1.7 1-2.3.6-.6 1.4-1 2.3-1H406c.2 0 1.1.1 2.5.2s3.2.4 5.4 1c2.1.5 4.4 1.4 6.8 2.6 2.4 1.2 4.8 2.8 7 5 5.3 5.2 7.9 12.2 7.9 20.9 0 5.7-.9 10.6-2.7 14.8-1.5 3.4-3.7 6.4-6.7 9-.8.6-1.6.9-2.5.7-.9-.1-1.6-.5-2.2-1.1-.6-.7-.8-1.5-.7-2.4.2-.9.5-1.7 1.1-2.3 4.7-4 7.1-10.2 7.1-18.8 0-7-1.9-12.5-5.8-16.4-1.8-1.8-3.6-3.1-5.7-3.9-2-.9-3.8-1.5-5.3-1.9-1.8-.3-3.3-.5-4.5-.7-.7-.1-1.3-.1-1.7-.1h-24.7v46.1h29.2c.8 0 1.6.3 2.3 1l24.5 26.5c.6.7.9 1.5.9 2.4z"/>
  <path id="XMLID_32_" class="st1" d="M218.5 109.4c-.9 0-1.7-.3-2.3-1-.6-.6-1-1.4-1-2.3V26.9c0-1.6.8-2.7 2.3-3.2.7-.2 1.4-.1 2.1.1.7.2 1.2.6 1.6 1.3L244.4 59c.5.8.6 1.6.5 2.5-.2.9-.6 1.6-1.3 2.1-.8.5-1.6.7-2.5.6-.9-.2-1.6-.6-2.1-1.5l-17.4-25.2v68.6c0 .9-.3 1.7-.9 2.3-.6.7-1.3 1-2.2 1z"/>
  <path id="XMLID_31_" class="st0" d="M272.7 109.4c-1.2 0-2.1-.5-2.6-1.5L247 74.3c-.5-.8-.6-1.6-.5-2.5.2-.9.6-1.5 1.4-2 .7-.6 1.5-.8 2.4-.7.9.2 1.6.6 2.1 1.5l17.2 24.9V26.9c0-.9.3-1.7 1-2.3.6-.6 1.4-1 2.2-1 .9 0 1.7.3 2.3 1 .6.6 1 1.4 1 2.3v79.2c0 1.6-.8 2.7-2.3 3.2-.2 0-.3 0-.5.1h-.6z"/>
  <path id="XMLID_70_" class="st1" d="M417.6 32.9c-2-.9-3.8-1.5-5.3-1.9"/>
  <path id="XMLID_68_" class="st1" d="M381.4 76.4h29.2c.8 0 1.6.3 2.3 1l24.5 26.5c.6.6.9 1.4.9 2.3 0 .9-.4 1.7-1.1 2.3-.6.6-1.4.9-2.3.9-1 0-1.8-.4-2.3-1.1L409 83h-27.6"/>
  <path id="XMLID_22_" class="st1" d="M368.8 5.3c-.2-.5-.6-.8-1.1-1C366 3.5 357.6 0 351.1 0c-1.2 0-2.4.1-3.4.4-4.6 1.2-8.2 4.8-9.2 9.1-.6 2.7 0 5.3 1.5 7.4-7.2 4.5-10.8 9.9-12.4 16.4-.6-1.1-1.3-2.1-2.3-3.1-1.8-1.8-4-2.9-6.6-3.4.7-2.2.5-4.5-.7-6.5-2-3.6-6.2-5.8-10.7-5.4-6.2.5-14.2 7.6-15.9 9.1-.5.3-.8.9-.8 1.5 0 .5.2.9.5 1.2 1.2 1.7 7.7 10.4 13.7 12.2 1.1.3 2.2.5 3.3.5 3.6 0 7-1.7 8.9-4.3 1-1.4 1.5-2.9 1.5-4.5 1.6.4 3 1.1 4.2 2.3 3.7 3.7 3.7 10.3 3.7 10.3v20.3h-20.8c-1 0-1.9.8-1.9 1.9v12.3c0 1 .8 1.9 1.9 1.9h1.9l4.4 27.7c.1.9.9 1.6 1.8 1.6h28.7c.9 0 1.7-.7 1.8-1.6l4.4-27.7h1.9c1 0 1.9-.8 1.9-1.9V65.3c0-1-.8-1.9-1.9-1.9h-20.4V55c0-5.5 3.4-7.7 5.7-8.5 0 1.3.4 2.5 1.2 3.6 1.5 2.2 4.3 3.6 7.2 3.6.9 0 1.8-.1 2.6-.4 4.8-1.4 10-8.3 10.9-9.5.3-.4.5-.9.4-1.4-.1-.5-.3-.9-.7-1.2-1.2-1.1-7.5-6.8-12.4-7.2-3.6-.3-7.1 1.5-8.7 4.4-.8 1.4-1.1 3-.8 4.5-1.7.5-3.6 1.5-5.3 3v-.8c0-10.8 2-18.5 11.4-24.5.4 1.3 1.1 2.6 2.1 3.6 1.9 1.9 4.7 3.1 7.8 3.1 2.6 0 5.3-.8 7.5-2.4 5.7-4.1 9.4-15.9 10-17.9.1-.7 0-1.3-.2-1.7zm-53.5 20.6l-6.9-.8c-1-.1-1.9.6-2.1 1.6-.1 1 .6 1.9 1.6 2.1l6.9.8c.2 1.5-.3 2.6-.8 3.3-1.6 2.3-5 3.3-8.1 2.4-3.6-1.1-8.2-6.2-10.9-9.6 3.3-2.8 8.8-6.9 12.6-7.2 3-.2 5.9 1.2 7.2 3.5.7 1 1.1 2.3.5 3.9zm25.6 79.2h-25.5l-4.1-25.6h33.6l-4 25.6zm7.8-37.9v8.6h-41.1v-8.6h41.1zM339.5 40c.9-1.6 3-2.7 5.2-2.5 2.5.2 6.5 3 9.1 5.3-2.2 2.8-5.5 6.2-8 6.9-2.2.6-4.7-.2-5.8-1.7-.4-.6-.6-1.2-.5-1.9l4.6-.4c1-.1 1.8-1 1.7-2-.1-1-1-1.8-2-1.7l-4.6.4c-.3-1 0-1.8.3-2.4zm17.2-18.4c-1.6 1.1-3.5 1.7-5.3 1.7-2 0-3.9-.7-5.1-1.9-.8-.8-1.3-1.8-1.4-2.9L352 15c.9-.4 1.3-1.5.9-2.5-.4-.9-1.5-1.3-2.5-.9l-7.1 3.4c-1.5-1.7-1.4-3.7-1.2-4.8.6-2.9 3.2-5.5 6.5-6.3.7-.2 1.5-.3 2.5-.3 4.8 0 11 2.3 13.8 3.4-1.5 4.7-4.6 12.1-8.2 14.6z"/>
  <path id="XMLID_14_" class="st0" d="M318.6 30.6c1.6.4 3 1.1 4.2 2.3 3.7 3.7 3.7 10.3 3.7 10.3v20.3h-20.8c-1 0-1.9.8-1.9 1.9v12.3c0 1 .8 1.9 1.9 1.9h1.9l4.4 27.7c.1.9.9 1.6 1.8 1.6h28.7c.9 0 1.7-.7 1.8-1.6l4.4-27.7h1.9c1 0 1.9-.8 1.9-1.9V65.3c0-1-.8-1.9-1.9-1.9h-20.4V55c0-5.5 3.4-7.7 5.7-8.5 0 1.3.4 2.5 1.2 3.6 1.5 2.2 4.3 3.6 7.2 3.6.9 0 1.8-.1 2.6-.4 4.8-1.4 10-8.3 10.9-9.5.3-.4.5-.9.4-1.4-.1-.5-.3-.9-.7-1.2-1.2-1.1-7.5-6.8-12.4-7.2-3.6-.3-7.1 1.5-8.7 4.4-.8 1.4-1.1 3-.8 4.5-1.7.5-3.6 1.5-5.3 3v-.8c0-10.8 2-18.5 11.4-24.5.4 1.3 1.1 2.6 2.1 3.6 1.9 1.9 4.7 3.1 7.8 3.1 2.6 0 5.3-.8 7.5-2.4 5.7-4.1 9.4-15.9 10-17.9.2-.5.2-1-.1-1.5-.2-.5-.6-.8-1.1-1-1.9-1-10.3-4.5-16.8-4.5-1.2 0-2.4.1-3.4.4-4.6 1.2-8.2 4.8-9.2 9.1-.6 2.7 0 5.3 1.5 7.4-7.2 4.5-10.8 9.9-12.4 16.4-.6-1.1-1.3-2.1-2.3-3.1-1.8-1.8-4-2.9-6.6-3.4m-27.1-2.9c-.5.3-.8.9-.8 1.5m50.1 79.7h-25.5l-4.1-25.6h33.6l-4 25.6zm7.8-37.9v8.6h-41.1v-8.6h41.1zM339.5 40c.9-1.6 3-2.7 5.2-2.5 2.5.2 6.5 3 9.1 5.3-2.2 2.8-5.5 6.2-8 6.9-2.2.6-4.7-.2-5.8-1.7-.4-.6-.6-1.2-.5-1.9l4.6-.4c1-.1 1.8-1 1.7-2-.1-1-1-1.8-2-1.7l-4.6.4c-.3-1 0-1.8.3-2.4zm17.2-18.4c-1.6 1.1-3.5 1.7-5.3 1.7-2 0-3.9-.7-5.1-1.9-.8-.8-1.3-1.8-1.4-2.9L352 15c.9-.4 1.3-1.5.9-2.5-.4-.9-1.5-1.3-2.5-.9l-7.1 3.4c-1.5-1.7-1.4-3.7-1.2-4.8.6-2.9 3.2-5.5 6.5-6.3.7-.2 1.5-.3 2.5-.3 4.8 0 11 2.3 13.8 3.4-1.5 4.7-4.6 12.1-8.2 14.6z"/>
</svg>
