<?xml version="1.0" encoding="utf-8"?>
<!-- Generator: Adobe Illustrator 19.0.0, SVG Export Plug-In . SVG Version: 6.00 Build 0)  -->
<svg version="1.1" id="Layer_1" xmlns="http://www.w3.org/2000/svg" xmlns:xlink="http://www.w3.org/1999/xlink" x="0px" y="0px"
	 viewBox="0 0 78.2 63.5" style="enable-background:new 0 0 78.2 63.5;" xml:space="preserve">
<style type="text/css">
	.st0{fill:#A7A952;}
	.st1{fill:#3F5079;}
</style>
<path id="XMLID_22_" class="st0" d="M39.4,63.5V55c0-5.5,3.4-7.7,5.7-8.5c0,1.3,0.4,2.5,1.2,3.6c1.5,2.2,4.3,3.6,7.2,3.6
	c0.9,0,1.8-0.1,2.6-0.4c4.8-1.4,10-8.3,10.9-9.5c0.3-0.4,0.5-0.9,0.4-1.4c-0.1-0.5-0.3-0.9-0.7-1.2c-1.2-1.1-7.5-6.8-12.4-7.2
	c-3.6-0.3-7.1,1.5-8.7,4.4c-0.8,1.4-1.1,3-0.8,4.5c-1.7,0.5-3.6,1.5-5.3,3v-0.8c0-10.8,2-18.5,11.4-24.5c0.4,1.3,1.1,2.6,2.1,3.6
	c1.9,1.9,4.7,3.1,7.8,3.1c2.6,0,5.3-0.8,7.5-2.4c5.7-4.1,9.4-15.9,10-17.9c0.2-0.5,0.2-1-0.1-1.5c-0.2-0.5-0.6-0.8-1.1-1
	C75.2,3.5,66.9,0,60.3,0c-1.2,0-2.4,0.1-3.4,0.4c-4.6,1.2-8.2,4.8-9.2,9.1c-0.6,2.7,0,5.3,1.5,7.4c-7.2,4.5-10.8,9.9-12.4,16.4
	c-0.6-1.1-1.3-2.1-2.3-3.1c-1.8-1.8-4-2.9-6.6-3.4c0.7-2.2,0.5-4.5-0.7-6.5c-2-3.6-6.2-5.8-10.7-5.4c-6.2,0.5-14.2,7.6-15.9,9.1
	C0.3,24.3,0,24.9,0,25.5v0c0,0.5,0.2,0.9,0.5,1.2c1.2,1.7,7.7,10.4,13.7,12.2c1.1,0.3,2.2,0.5,3.3,0.5c3.6,0,7-1.7,8.9-4.3
	c1-1.4,1.5-2.9,1.5-4.5c1.6,0.4,3,1.1,4.2,2.3c3.7,3.7,3.7,10.3,3.7,10.3h0c0,0.6,0,1.1,0,1.7v18.6 M24.5,25.9l-6.9-0.8
	c-1-0.1-1.9,0.6-2.1,1.6c-0.1,1,0.6,1.9,1.6,2.1l6.9,0.8c0.2,1.5-0.3,2.6-0.8,3.3c-1.6,2.3-5,3.3-8.1,2.4c-3.6-1.1-8.2-6.2-10.9-9.6
	c3.3-2.8,8.8-6.9,12.6-7.2c3-0.2,5.9,1.2,7.2,3.5C24.7,23,25.1,24.3,24.5,25.9z M48.7,40c0.9-1.6,3-2.7,5.2-2.5
	c2.5,0.2,6.5,3,9.1,5.3c-2.2,2.8-5.5,6.2-8,6.9c-2.2,0.6-4.7-0.2-5.8-1.7c-0.4-0.6-0.6-1.2-0.5-1.9l4.6-0.4c1-0.1,1.8-1,1.7-2
	c-0.1-1-1-1.8-2-1.7l-4.6,0.4C48.2,41.4,48.4,40.6,48.7,40z M66,21.6c-1.6,1.1-3.5,1.7-5.3,1.7c-2,0-3.9-0.7-5.1-1.9
	c-0.8-0.8-1.3-1.8-1.4-2.9l7.2-3.4c0.9-0.4,1.3-1.5,0.9-2.5c-0.4-0.9-1.5-1.3-2.5-0.9l-7.1,3.4c-1.5-1.7-1.4-3.7-1.2-4.8
	C52,7.3,54.6,4.8,57.8,4c0.7-0.2,1.5-0.3,2.5-0.3c4.8,0,11,2.3,13.8,3.4C72.6,11.7,69.5,19.1,66,21.6z"/>
<path id="XMLID_14_" class="st1" d="M27.9,30.6c1.6,0.4,3,1.1,4.2,2.3c3.7,3.7,3.7,10.3,3.7,10.3h0c0,0.6,0,1.1,0,1.7v18.6l3.7,0V55
	c0-5.5,3.4-7.7,5.7-8.5c0,1.3,0.4,2.5,1.2,3.6c1.5,2.2,4.3,3.6,7.2,3.6c0.9,0,1.8-0.1,2.6-0.4c4.8-1.4,10-8.3,10.9-9.5
	c0.3-0.4,0.5-0.9,0.4-1.4c-0.1-0.5-0.3-0.9-0.7-1.2c-1.2-1.1-7.5-6.8-12.4-7.2c-3.6-0.3-7.1,1.5-8.7,4.4c-0.8,1.4-1.1,3-0.8,4.5
	c-1.7,0.5-3.6,1.5-5.3,3v-0.8c0-10.8,2-18.5,11.4-24.5c0.4,1.3,1.1,2.6,2.1,3.6c1.9,1.9,4.7,3.1,7.8,3.1c2.6,0,5.3-0.8,7.5-2.4
	c5.7-4.1,9.4-15.9,10-17.9c0.2-0.5,0.2-1-0.1-1.5c-0.2-0.5-0.6-0.8-1.1-1C75.2,3.5,66.9,0,60.3,0c-1.2,0-2.4,0.1-3.4,0.4
	c-4.6,1.2-8.2,4.8-9.2,9.1c-0.6,2.7,0,5.3,1.5,7.4c-7.2,4.5-10.8,9.9-12.4,16.4c-0.6-1.1-1.3-2.1-2.3-3.1c-1.8-1.8-4-2.9-6.6-3.4
	 M14.2,38.9 M0.8,23.9C0.3,24.3,0,24.9,0,25.5v0 M48.7,40c0.9-1.6,3-2.7,5.2-2.5c2.5,0.2,6.5,3,9.1,5.3c-2.2,2.8-5.5,6.2-8,6.9
	c-2.2,0.6-4.7-0.2-5.8-1.7c-0.4-0.6-0.6-1.2-0.5-1.9l4.6-0.4c1-0.1,1.8-1,1.7-2c-0.1-1-1-1.8-2-1.7l-4.6,0.4
	C48.2,41.4,48.4,40.6,48.7,40z M66,21.6c-1.6,1.1-3.5,1.7-5.3,1.7c-2,0-3.9-0.7-5.1-1.9c-0.8-0.8-1.3-1.8-1.4-2.9l7.2-3.4
	c0.9-0.4,1.3-1.5,0.9-2.5c-0.4-0.9-1.5-1.3-2.5-0.9l-7.1,3.4c-1.5-1.7-1.4-3.7-1.2-4.8C52,7.3,54.6,4.8,57.8,4
	c0.7-0.2,1.5-0.3,2.5-0.3c4.8,0,11,2.3,13.8,3.4C72.6,11.7,69.5,19.1,66,21.6z"/>
</svg>
